Coordinates
version=1
nRows=13
nColumns=40
inDegrees=yes

Units are S.I. units (second, meters, Newtons, ...)
Angles are in degrees.

endheader
time	pelvis_tilt	pelvis_list	pelvis_rotation	pelvis_tx	pelvis_ty	pelvis_tz	hip_flexion_r	hip_adduction_r	hip_rotation_r	knee_angle_r	knee_angle_r_beta	ankle_angle_r	subtalar_angle_r	mtp_angle_r	hip_flexion_l	hip_adduction_l	hip_rotation_l	knee_angle_l	knee_angle_l_beta	ankle_angle_l	subtalar_angle_l	mtp_angle_l	lumbar_extension	lumbar_bending	lumbar_rotation	arm_flex_r	arm_add_r	arm_rot_r	elbow_flex_r	pro_sup_r	wrist_flex_r	wrist_dev_r	arm_flex_l	arm_add_l	arm_rot_l	elbow_flex_l	pro_sup_l	wrist_flex_l	wrist_dev_l
      9.46250000	     -1.17460761	     -4.12614930	      5.41441042	      1.08828495	      0.93743590	      0.50516864	      3.81080113	      3.50751831	    -21.08488923	      9.71341311	      9.71341311	      9.27232370	      3.49276371	     -7.64751257	     29.19276536	    -12.91540099	     -2.81084803	     37.63571763	     37.63571763	     10.62178550	    -16.82067223	     12.51109507	     -9.87044481	      7.00077112	      3.60789388	     34.17854373	    -20.77612991	     -4.60358306	     60.19038867	     45.33765824	      0.00000000	      0.00000000	     -7.60860164	     -8.16554938	      0.35354611	     29.86932814	     45.59072063	      0.00000000	      0.00000000
      9.47585714	     -1.23418504	     -4.07637356	      5.79846209	      1.08767917	      0.93733268	      0.50507529	      3.12617918	      3.63887584	    -21.42066663	      8.90400877	      8.90400877	      9.24567387	      3.86003363	     -7.86061767	     29.09405417	    -12.37537853	     -2.88916132	     33.77308875	     33.77308875	     10.44995951	    -15.80425565	     12.62854360	     -9.89477639	      6.95971616	      3.53002092	     35.48277976	    -20.75325442	     -4.66080027	     61.73033794	     45.29438864	      0.00000000	      0.00000000	     -8.40807681	     -8.12994219	      0.48957409	     29.61954702	     45.56010195	      0.00000000	      0.00000000
      9.48921429	     -1.34727670	     -4.16476063	      6.17192771	      1.08708894	      0.93689186	      0.50487898	      2.53906079	      3.89526244	    -21.85914456	      8.14871399	      8.14871399	      9.19381233	      4.33071556	     -8.20637665	     29.11065351	    -11.97565901	     -2.87665213	     30.17670465	     30.17670465	     10.32387285	    -14.38864136	     12.43064829	     -9.85693525	      7.05697568	      3.48914694	     36.70710350	    -20.83117603	     -4.72940482	     63.52267688	     45.24358341	      0.00000000	      0.00000000	     -9.12720635	     -8.02739077	      0.63422950	     29.48951478	     45.52992408	      0.00000000	      0.00000000
      9.50257143	     -1.47821676	     -4.34081325	      6.53347713	      1.08645945	      0.93622606	      0.50464105	      1.96127480	      4.24042270	    -22.49548077	      7.32533567	      7.32533567	      8.91870314	      5.07226034	     -9.20362810	     29.16151511	    -11.70913278	     -2.95113570	     26.78761870	     26.78761870	      9.70480793	    -12.69168156	     10.88118209	     -9.85396203	      7.26672595	      3.81999294	     37.21517608	    -21.40769553	     -4.90812575	     66.81841061	     45.15259636	      0.00000000	      0.00000000	     -9.70099914	     -7.95687042	      1.01836729	     29.75010032	     45.47616658	      0.00000000	      0.00000000
      9.51592857	     -1.71391664	     -4.44428522	      6.81391653	      1.08561849	      0.93548577	      0.50433460	      1.75327631	      4.42417127	    -22.68155434	      7.01333261	      7.01333261	      9.06227082	      5.09066666	     -9.32651502	     29.32718313	    -11.32506603	     -2.93573605	     23.77786885	     23.77786885	      9.67732096	    -10.98636177	     11.17739240	     -9.68937531	      7.29604180	      3.94587226	     38.45998384	    -21.49088797	     -5.05271932	     67.75502959	     45.13412449	      0.00000000	      0.00000000	    -10.15420304	     -7.82566676	      1.12236891	     29.55604198	     45.45630261	      0.00000000	      0.00000000
      9.52928571	     -1.76276809	     -4.57123736	      7.11599125	      1.08503137	      0.93496948	      0.50385508	      1.17086059	      4.69243313	    -23.04594510	      6.39188701	      6.39188701	      9.06433029	      5.57910186	     -9.55647476	     29.36567236	    -11.07580879	     -3.18546290	     21.27862852	     21.27862852	      9.66037057	     -8.80291330	     11.16844783	     -9.77230550	      7.46555735	      3.85592811	     39.51139831	    -21.37426169	     -5.24968078	     69.84534055	     45.08338490	      0.00000000	      0.00000000	    -10.69512384	     -7.76691224	      1.31824977	     29.39132551	     45.42749526	      0.00000000	      0.00000000
      9.54264286	     -2.02437727	     -4.75429858	      7.36462455	      1.08424466	      0.93410785	      0.50330031	      1.04028417	      4.91533763	    -23.22540510	      6.17170016	      6.17170016	      9.21127773	      5.65259368	     -9.65246577	     29.71056775	    -10.79363967	     -3.11834134	     19.27372046	     19.27372046	      9.52384293	     -7.38074926	     11.46192354	     -9.53302551	      7.60175570	      3.98602918	     40.62799915	    -21.49943678	     -5.40024203	     70.74692364	     45.06571002	      0.00000000	      0.00000000	    -11.01341976	     -7.65630264	      1.37412476	     29.29786979	     45.41654657	      0.00000000	      0.00000000
      9.55600000	     -2.23175019	     -4.89621386	      7.57145315	      1.08349355	      0.93339825	      0.50267436	      0.83675238	      5.09842553	    -23.39236798	      5.93268604	      5.93268604	      9.34843268	      5.78331222	     -9.71011055	     30.02025574	    -10.52523956	     -3.19998085	     17.77891287	     17.77891287	      9.26693428	     -6.11989601	     11.72786571	     -9.44262774	      7.68723025	      4.01447337	     41.71174651	    -21.49765047	     -5.52992367	     71.75755979	     45.04311052	      0.00000000	      0.00000000	    -11.32106091	     -7.57421487	      1.41852588	     29.20098669	     45.40700058	      0.00000000	      0.00000000
      9.56935714	     -2.26473792	     -4.92299569	      7.71762328	      1.08316343	      0.93305007	      0.50201793	      0.29887919	      5.18986418	    -23.80089612	      5.51397939	      5.51397939	      9.53413414	      6.58937797	     -9.65044265	     30.06644041	    -10.32652796	     -3.92074756	     16.76522509	     16.76522509	      9.12992402	     -4.34689707	     11.68085768	     -9.59838532	      7.63505087	      4.26867320	     41.70204353	    -21.53941369	     -6.06089015	     75.17251619	     44.96870157	      0.00000000	      0.00000000	    -11.55193691	     -7.55792349	      1.56727880	     29.44242584	     45.40084155	      0.00000000	      0.00000000
      9.58271429	     -2.45915913	     -5.06256612	      7.82176267	      1.08264969	      0.93239519	      0.50123095	      0.11884466	      5.33204127	    -23.83729969	      5.39768957	      5.39768957	      9.72367232	      6.65566513	     -9.65770198	     30.38282450	    -10.11709418	     -4.01240389	     16.30571560	     16.30571560	      8.69010397	     -3.94822537	     11.85390510	     -9.45871272	      7.67887351	      4.31571909	     42.61613483	    -21.48422319	     -6.17876286	     75.88532381	     44.95550920	      0.00000000	      0.00000000	    -11.70646247	     -7.49848856	      1.61942927	     29.35315294	     45.39312125	      0.00000000	      0.00000000
      9.59607143	     -2.65910334	     -5.13797523	      7.85906625	      1.08227517	      0.93177558	      0.50032534	     -0.07355377	      5.38863738	    -23.82710455	      5.27981521	      5.27981521	      9.92113978	      6.77061093	     -9.64817464	     30.62399997	     -9.89097218	     -4.22429021	     16.22822641	     16.22822641	      8.15291719	     -3.79301727	     11.97726599	     -9.32984551	      7.64376678	      4.35167271	     43.43744491	    -21.38529225	     -6.26846215	     76.59118135	     44.94034427	      0.00000000	      0.00000000	    -11.81415059	     -7.46676809	      1.64926860	     29.30945899	     45.38856243	      0.00000000	      0.00000000
      9.60942857	     -2.74048413	     -5.25860364	      7.91550313	      1.08228969	      0.93129641	      0.49933183	     -0.36037463	      5.48838975	    -23.81112850	      5.27856695	      5.27856695	     10.15718622	      6.79023930	     -9.70719680	     30.61236677	     -9.73848882	     -4.33492876	     16.37381001	     16.37381001	      7.61851370	     -3.74496616	     12.13350892	     -9.14330264	      7.60553948	      4.44209351	     43.65047867	    -21.31940265	     -6.27212287	     76.77629009	     44.93553104	      0.00000000	      0.00000000	    -11.86315556	     -7.44513975	      1.65420033	     29.29992710	     45.38729843	      0.00000000	      0.00000000
      9.62278571	     -2.83019501	     -5.39986543	      7.83926020	      1.08233142	      0.93058379	      0.49817810	     -0.67253189	      5.55286956	    -24.18992633	      5.28610956	      5.28610956	     10.91194345	      7.87035329	     -8.47534575	     30.62781812	     -9.62049052	     -4.31359847	     16.91049199	     16.91049199	      6.15246352	     -4.63817765	     10.24836799	     -9.35053432	      7.73598905	      4.76098071	     43.48290233	    -21.28223197	     -7.22829994	     81.09850139	     44.85841929	      0.00000000	      0.00000000	    -11.99467213	     -7.47092869	      1.76856507	     30.08775482	     45.39284245	      0.00000000	      0.00000000
